<svg xmlns="http://www.w3.org/2000/svg" viewBox="0 0 361.34 197.79"><defs><style>.cls-1,.cls-2{fill:#fff;}.cls-1{fill-rule:evenodd;}</style></defs><title>Asset 14</title><g id="Layer_2" data-name="Layer 2"><g id="roothub_kbc" data-name="roothub kbc"><polygon class="cls-1" points="85.61 25.69 264.8 25.69 265.25 63.95 361.34 63.5 355.03 165.79 99.96 163.57 99.3 157.3 350.16 158.68 355.42 69.95 258.93 69.83 258.5 33.37 86.41 33.38 85.61 25.69"/><path class="cls-2" d="M148.7,61.78l10.88,11.13-12.56,1-11.64-12,1.65,11-11.4.57.55-36,10.93,1.41-1.46,14.54,10-1.07.15-13.69,11.05-.37,0,24.13Z"/><path class="cls-2" d="M172.68,38.17l.74,35.23-9.24,0L162.05,37.9Z"/><path class="cls-2" d="M176.71,72.17,175.89,39,192,37.6l14.58,14.61-1.26,19.36Zm9.12-9.3,11.38-.62-1.64-4.2L187,47.25Z"/><path class="cls-2" d="M240.39,48.46l-17.28.74,17.68,14.14-.37,9-29.12-.14-1.78-8.88L226.65,63l-17.6-14.86,1-9.84,30.28-.59Z"/><path class="cls-2" d="M149.28,138.51l-.48,14.31L126,151.27l.37-31.61,23.61-.75-.5,14.43L146,135.8Zm-16,5.1,9.06-1.16.27-2.16-9.18,1.07Zm.69-15.45-.15,3.51,7.65-1.2-.15-1.69Z"/><path class="cls-2" d="M151.89,151.39l1.25-31.64,23.15-.93v32.93Zm8.77-8.6,7.93.23-1.35-14.2-6.62-.68Z"/><path class="cls-2" d="M178.22,151.39l1.25-31.64,23.14-.93v32.93Zm8.77-8.6,7.93.23-1.35-14.2-6.62-.68Z"/><path class="cls-2" d="M220.51,129.26l-.65,21.81-7.35.29.69-22.26-8.66-.73.08-7.86,24.5-1.69-.47,10.05Z"/><path class="cls-2" d="M254.9,129.42l-16.43.34,0,11.94,15.93-1.07.76,10.39L232,153.21l-.9-34,22.93.68Z"/><path class="cls-2" d="M265.71,148l-.2,2.9-8.46.43L258.47,120,280,121l.92,31.93-8.12-1.35.58-4.92Zm8.15-10-.88-9.12L265.36,130l0,8.64Z"/><path class="cls-2" d="M291.15,128.23l-1.62,22.61-6.1.18-.62-31.49,34.72,1.11L317,151l-7.17.77-.14-22.15-5.09-1.3,0,23.82-8.22-.46-.75-21.76Z"/><path class="cls-2" d="M326.92,143.77l.49,7.25-7.76,1-.19-32.61,24.51.23-.19,24.09Zm.43-14.38-.19,3.35,7.19,1.21,1.23-6Z"/><path class="cls-2" d="M137,98.5,135.49,113l-8.21.31-1.14-36,11.16-1.29-1.84,14L147,88.6l-.62-13.66,10.31,1.32.83,35.74-10.42-.65L146.81,99Z"/><path class="cls-2" d="M160.08,111.92l1.68-36,31.1-1.06v37.44Zm11.79-9.77,10.65.26-1.81-16.14-8.89-.78Z"/><path class="cls-2" d="M195.45,113.16l1.27-36.58,12.77-1.07-3.31,27.08,18.63-.78-2.36,13Z"/><path class="cls-2" d="M238.54,76.11l.78,36.92-9.69,0L227.4,75.82Z"/><path class="cls-2" d="M242.76,111.74,241.91,77l16.87-1.51,15.29,15.32-1.33,20.29Zm9.57-9.75,11.92-.64-1.72-4.41-9-11.32Z"/><path class="cls-2" d="M288.29,108.08l-.26,3.3-11.37.49,1.91-35.63,28.87,1.09,1.24,36.3-10.91-1.53.78-5.6Zm11-11.4-1.19-10.36-10.24,1.29,0,9.82Z"/><path class="cls-2" d="M333.27,101.61l.37-1.2-19.88-.85-1.09-24.15,11,1.53L324,89.12l8.65-.24,1.19-12.25,10.57,0-1.86,35.84-31.23.9,1.79-10.72Z"/><path class="cls-1" d="M47.28,67.15C-8,76,.26,85.76.67,163.51l21.7-.35-.15-40.8c9.22-2,21.51-3.75,33.84-6.37,6.23,24.33,46.19,41.6,32.91,65.49,17.43-8.26,38.56-32,24.91-52.13L105,116.21l-9.72-15c5.1-3.83,8.79-8.48,10.31-14.2-5.67-17.7-41.45-22-58.27-19.89m59.14,16.23C130.93,12.51,53,11.54,2.59,0-9.87,99.86,91.49,36.75,106.42,83.38Z"/><path class="cls-2" d="M131.9,176.5,139.1,193h-2L135,188.11h-6.19l-2,4.85h-2.05Zm0,4.16-2.53,5.83h5Z"/><path class="cls-2" d="M142.15,183.06v4.87a5.1,5.1,0,0,0,.64,3,3.11,3.11,0,0,0,4.26,0,5.28,5.28,0,0,0,.62-3v-4.87h1.73v5.78a4.76,4.76,0,0,1-7.88,3.39,4.63,4.63,0,0,1-1.14-3.39v-5.78Z"/><path class="cls-2" d="M161.9,183.06v9.73a8.17,8.17,0,0,1-.22,2.29,3.17,3.17,0,0,1-.71,1.23,4.3,4.3,0,0,1-1.7,1.11,6.49,6.49,0,0,1-2.3.37,5.38,5.38,0,0,1-3.51-1,3.68,3.68,0,0,1-1.31-2.91h1.9V194a2.07,2.07,0,0,0,.77,1.72,3.47,3.47,0,0,0,2.18.61,4.14,4.14,0,0,0,1.73-.33,2.39,2.39,0,0,0,1.1-1,2.75,2.75,0,0,0,.33-.86,8.13,8.13,0,0,0,.09-1.39v-1.67a4.16,4.16,0,0,1-1.5,1.63,3.93,3.93,0,0,1-2.09.57,4.4,4.4,0,0,1-3.43-1.45,6.39,6.39,0,0,1,0-7.7,4.29,4.29,0,0,1,3.38-1.42,4.14,4.14,0,0,1,2.17.55,3.92,3.92,0,0,1,1.47,1.64v-1.84Zm-1.65,5a3.85,3.85,0,0,0-.91-2.68,3.39,3.39,0,0,0-4.77-.08,3.78,3.78,0,0,0-.85,2.63,4.06,4.06,0,0,0,.86,2.77,3.06,3.06,0,0,0,2.44,1,3,3,0,0,0,2.37-1A3.82,3.82,0,0,0,160.25,188Z"/><path class="cls-2" d="M166.92,183.06v4.87a5.19,5.19,0,0,0,.63,3,2.49,2.49,0,0,0,2.14.85,2.46,2.46,0,0,0,2.12-.84,5.18,5.18,0,0,0,.63-3v-4.87h1.73v5.78a4.06,4.06,0,0,1-4.53,4.55,4.51,4.51,0,0,1-3.35-1.16,4.63,4.63,0,0,1-1.15-3.39v-5.78Z"/><path class="cls-2" d="M176.4,191.3l1.45-1a3,3,0,0,0,1,1.19,2.78,2.78,0,0,0,1.49.39,2,2,0,0,0,1.34-.41,1.29,1.29,0,0,0,.52-1.08,1.2,1.2,0,0,0-.35-.87,3.26,3.26,0,0,0-1.21-.63l-.28-.1q-3.62-1.25-3.62-3.12a2.71,2.71,0,0,1,1-2.15,3.73,3.73,0,0,1,2.53-.83,4.51,4.51,0,0,1,2.21.51,3,3,0,0,1,1.32,1.46l-1.38.84a2.3,2.3,0,0,0-.89-1.05,2.57,2.57,0,0,0-1.37-.37,1.77,1.77,0,0,0-1.22.42,1.37,1.37,0,0,0-.47,1.06c0,.61.66,1.12,2,1.53l.59.18a5.52,5.52,0,0,1,2.24,1.19,2.45,2.45,0,0,1,.64,1.76,2.87,2.87,0,0,1-1,2.27,3.77,3.77,0,0,1-2.61.88,5,5,0,0,1-2.35-.52A3.84,3.84,0,0,1,176.4,191.3Z"/><path class="cls-2" d="M186.73,184.46h-1.82v-1.4h1.82v-4h1.73v4h1.82v1.4h-1.82V193h-1.73Z"/><path class="cls-2" d="M199.31,185.05,199,185l1.89-7.72h6.95v1.63h-5.67l-1,4.07a5,5,0,0,1,1.16-.43,5.43,5.43,0,0,1,1.29-.15,4.92,4.92,0,0,1,3.68,1.39,5.2,5.2,0,0,1,1.36,3.77,5.42,5.42,0,0,1-5.83,5.84,6.28,6.28,0,0,1-2.79-.57,5.11,5.11,0,0,1-2-1.76l1.33-1.55a4.1,4.1,0,0,0,1.43,1.66,3.73,3.73,0,0,0,2.06.57,3.62,3.62,0,0,0,2.75-1.09,4.06,4.06,0,0,0,1-2.91,3.68,3.68,0,0,0-1.07-2.78,4,4,0,0,0-2.88-1,5.46,5.46,0,0,0-3.36,1.13Z"/><path class="cls-2" d="M212.07,184.46h-1.82v-1.4h1.82v-4h1.73v4h1.82v1.4H213.8V193h-1.73Z"/><path class="cls-2" d="M217.54,193V176.19h1.66v8.4a4.05,4.05,0,0,1,1.53-1.42,4.46,4.46,0,0,1,2.08-.46,3.84,3.84,0,0,1,2.74.93,3.4,3.4,0,0,1,1,2.58V193H224.8v-5.83a3.34,3.34,0,0,0-.63-2.23,2.43,2.43,0,0,0-1.95-.73,3.4,3.4,0,0,0-1.38.27,2.82,2.82,0,0,0-1,.79,2.37,2.37,0,0,0-.45.88,7.72,7.72,0,0,0-.13,1.74V193Z"/><path class="cls-2" d="M236.21,187.18h5.06v1.7h-5.06Z"/><path class="cls-2" d="M260.13,191.17V193h-9.55l3.35-4,1-1.13c2.57-3.05,3.86-5.19,3.86-6.4a2.56,2.56,0,0,0-.86-2,3.21,3.21,0,0,0-2.25-.78,3,3,0,0,0-2.31.84,3.4,3.4,0,0,0-.8,2.42v.18h-1.77s0-.12,0-.21,0-.17,0-.21a4.61,4.61,0,0,1,1.31-3.5A5.12,5.12,0,0,1,255.7,177a5.25,5.25,0,0,1,3.61,1.16,4.12,4.12,0,0,1,1.3,3.23,6.33,6.33,0,0,1-.88,3.09,23,23,0,0,1-3.12,4l-2.49,2.69Z"/><path class="cls-2" d="M263.63,189h1.93v.18a2.43,2.43,0,0,0,.79,1.92,3,3,0,0,0,2.15.71,3.41,3.41,0,0,0,2.42-.79,2.93,2.93,0,0,0,.86-2.26,3,3,0,0,0-.87-2.32,3.75,3.75,0,0,0-2.58-.78H268l-.22,0v-1.55h.5a3.73,3.73,0,0,0,2.47-.71,3.06,3.06,0,0,0,.08-4.1,2.88,2.88,0,0,0-2.06-.73,3.2,3.2,0,0,0-2.16.68,2.69,2.69,0,0,0-.84,2h-1.86a4.29,4.29,0,0,1,1.37-3.14,5.27,5.27,0,0,1,3.53-1.09,5,5,0,0,1,3.47,1.14,3.89,3.89,0,0,1,1.27,3.07,3.77,3.77,0,0,1-.74,2.38,3.63,3.63,0,0,1-2.07,1.32,3.43,3.43,0,0,1,2.22,1.27,4.21,4.21,0,0,1,.8,2.64,4.26,4.26,0,0,1-1.41,3.38,5.76,5.76,0,0,1-3.91,1.23,5.15,5.15,0,0,1-3.5-1.13,3.79,3.79,0,0,1-1.31-3Z"/><path class="cls-2" d="M277.23,193v-9.9h1.51v2.06a5.21,5.21,0,0,1,1.44-1.84,3.14,3.14,0,0,1,1.88-.55,2.78,2.78,0,0,1,.58.05,3.53,3.53,0,0,1,.56.14l-.56,1.53a3.25,3.25,0,0,0-.55-.15,2.92,2.92,0,0,0-.5-.05,2.3,2.3,0,0,0-2,1,5.15,5.15,0,0,0-.67,2.92V193Z"/><path class="cls-2" d="M294.21,176.19V193h-1.65v-1.79a4.29,4.29,0,0,1-1.51,1.64,3.9,3.9,0,0,1-2.08.58,4.35,4.35,0,0,1-3.43-1.47,6.46,6.46,0,0,1,0-7.76,4.29,4.29,0,0,1,3.4-1.45,4,4,0,0,1,2.14.55,4.2,4.2,0,0,1,1.47,1.66v-8.73Zm-1.65,11.87a3.76,3.76,0,0,0-.92-2.66,3.1,3.1,0,0,0-2.42-1,3,3,0,0,0-2.35.92,3.65,3.65,0,0,0-.84,2.55,4.37,4.37,0,0,0,.85,2.86,2.9,2.9,0,0,0,2.36,1,3.12,3.12,0,0,0,2.44-1A3.88,3.88,0,0,0,292.56,188.06Z"/><path class="cls-2" d="M308.13,177.25l-2,5.9-1.86-.67,2.68-5.71Z"/><path class="cls-2" d="M315.51,193v-14h-3.24l1.06-1.65h4V193Z"/><path class="cls-2" d="M331,186.32a4.69,4.69,0,0,1-1.18.56,3.94,3.94,0,0,1-1.25.19,4.64,4.64,0,0,1-3.46-1.36,4.86,4.86,0,0,1-1.33-3.53,5,5,0,0,1,1.5-3.81,5.68,5.68,0,0,1,4.07-1.41,4.56,4.56,0,0,1,3.51,1.44,5.26,5.26,0,0,1,1.33,3.75q0,2.25-3,6.46l-.08.11-3.61,5.11-1.65-.85Zm1.27-4.33a3.53,3.53,0,0,0-.89-2.53,3.47,3.47,0,0,0-4.76,0,4.08,4.08,0,0,0,0,5.09,3.23,3.23,0,0,0,2.46.94,3,3,0,0,0,2.3-1A3.6,3.6,0,0,0,332.26,182Z"/><path class="cls-2" d="M76.36,174.5q0,3.18,0,3.18h0l.44.09a9.3,9.3,0,0,0,1.94.14,6.38,6.38,0,0,0,1.15-.22,2.92,2.92,0,0,0,1.07-.54,2.79,2.79,0,0,0,.73-1,3.81,3.81,0,0,0,.3-1.58,4.93,4.93,0,0,0-.25-1.67,2.7,2.7,0,0,0-.65-1.11,3,3,0,0,0-.94-.64,3.75,3.75,0,0,0-1.06-.29,7.72,7.72,0,0,0-1.08,0,6.74,6.74,0,0,0-1,.11,5.71,5.71,0,0,0-.71.17Zm0-6.88-1.5,1.66a3.05,3.05,0,0,0,.91-.48l.65-.51a2.26,2.26,0,0,1,.91-.38,7.66,7.66,0,0,1,1.77-.17,9.33,9.33,0,0,1,1.92.2,6.42,6.42,0,0,1,1.81.67,5.8,5.8,0,0,1,1.56,1.2,5.42,5.42,0,0,1,1.06,1.87,7.94,7.94,0,0,1,.4,2.58c0,2.49-.56,4.26-1.67,5.33s-3,1.6-5.51,1.6a18.06,18.06,0,0,1-2.19-.12,14.61,14.61,0,0,1-1.54-.26,4.86,4.86,0,0,1-1-.4,4.5,4.5,0,0,1-.65-.41,4,4,0,0,1-.38-.41l-.24-.28V165.12a3.48,3.48,0,0,1,.24-1.46,1.09,1.09,0,0,1,.66-.64,2.84,2.84,0,0,1,.88-.13,7.72,7.72,0,0,0,1-.08,2,2,0,0,0,.94-.33Z"/><path class="cls-2" d="M58.11,176.5v-8.76a10.18,10.18,0,0,1,1.49,0,4.35,4.35,0,0,1,1.17.27,1.61,1.61,0,0,1,.83.71,2.45,2.45,0,0,1,.25,1.24v6.45c.24,1.18,1.37,1.65,3.38,1.39a13.4,13.4,0,0,0,1.82-.29,5.39,5.39,0,0,1-.07-1V170a2.46,2.46,0,0,1,.23-1.24A1.54,1.54,0,0,1,68,168a4.52,4.52,0,0,1,1.18-.27,10.18,10.18,0,0,1,1.49,0v11.72q0,1.56-5.2,1.68-7.4.2-7.4-4.64"/><path class="cls-2" d="M47.22,168.13a12.34,12.34,0,0,1,4.09-.48,5.76,5.76,0,0,1,2.39.45,3.84,3.84,0,0,1,1.44,1.05,4.31,4.31,0,0,1,.69,1.35,5.42,5.42,0,0,1,.26,1.13,3.4,3.4,0,0,1,0,.64V181c-2.49.32-3.74-.42-3.74-2.24v-2.64a14.36,14.36,0,0,0-.34-4.37c-.25-.52-1-.79-2.35-.83a7.28,7.28,0,0,0-2.44.44v7.4a1.77,1.77,0,0,1-.93,1.89,6.07,6.07,0,0,1-2.8.35V162.26a2.35,2.35,0,0,0,1.18.37c.49,0,.9.06,1.24.06a1.14,1.14,0,0,1,.91.52,2.8,2.8,0,0,1,.4,1.7Z"/><path class="cls-2" d="M28.15,178.81a4.2,4.2,0,0,0,3-1.23,4,4,0,0,0,0-5.87,4.4,4.4,0,0,0-6.08,0,4,4,0,0,0,0,5.87,4.17,4.17,0,0,0,3,1.23m0,2.05a6.31,6.31,0,0,1-4.58-1.8,6.17,6.17,0,0,1,0-8.83,6.35,6.35,0,0,1,4.58-1.8,6.35,6.35,0,0,1,4.57,1.8,6.17,6.17,0,0,1,0,8.83A6.31,6.31,0,0,1,28.15,180.86Z"/><path class="cls-2" d="M14.21,178.81a4.2,4.2,0,0,0,3-1.23,4,4,0,0,0,0-5.87,4.24,4.24,0,0,0-3-1.22,4.2,4.2,0,0,0-3,1.22,4,4,0,0,0,0,5.87,4.17,4.17,0,0,0,3,1.23m0,2.05a6.31,6.31,0,0,1-4.58-1.8,6.17,6.17,0,0,1,0-8.83,6.35,6.35,0,0,1,4.58-1.8,6.35,6.35,0,0,1,4.57,1.8,6.17,6.17,0,0,1,0,8.83A6.31,6.31,0,0,1,14.21,180.86Z"/><polygon class="cls-2" points="36.64 180.86 36.64 168.5 33.97 168.5 33.97 166.47 36.64 166.47 36.64 162.25 38.77 162.25 38.77 166.47 41.51 166.47 41.51 168.5 38.77 168.5 38.77 180.86 36.64 180.86"/><path class="cls-2" d="M1.87,180.86V168.43H4v1.62l.43-.35a6,6,0,0,1,3.91-1.27v2.06a4.34,4.34,0,0,0-2.76.93A4.07,4.07,0,0,0,4,173.82l-.07.75v6.29Z"/></g></g></svg>